999
FreeCAD v1.0 39109 (Git)
  0
SECTION
  2
HEADER
  9
$ACADVER
  1
AC1014
  9
$ACADMAINTVER
 70
     9
  9
$DWGCODEPAGE
  3
ANSI_1252
  9
$TEXTSTYLE
  7
STANDARD
  9
$DIMSTYLE
  2
STANDARD
  9
$DIMTXSTY
  7
STANDARD
  9
$CMLSTYLE
  2
STANDARD
  9
$LUNITS
 70
2
  9
$INSUNITS
 70
4
  9
$PEXTMAX
 10
50
 20
50
 30
50
  9
$PEXTMIN
 10
0
 20
0
 30
0
  9
$HANDSEED
  5
FFFF
  0
ENDSEC
  0
SECTION
  2
CLASSES
  0
CLASS
  1
ACDBDICTIONARYWDFLT
  2
AcDbDictionaryWithDefault
  3
ObjectDBX Classes
 90
        0
280
     0
281
     0
  0
CLASS
  1
XRECORD
  2
AcDbXrecord
  3
ObjectDBX Classes
 90
        0
280
     0
281
     0
  0
CLASS
  1
LWPOLYLINE
  2
AcDbPolyline
  3
ObjectDBX Classes
 90
        0
280
     0
281
     1
  0
ENDSEC
  0
SECTION
  2
TABLES
  0
TABLE
  2
VPORT
  5
20
330
0
100
AcDbSymbolTable
 70
     1
  0
VPORT
  5
21
330
20
100
AcDbSymbolTableRecord
100
AcDbViewportTableRecord
  2
*ACTIVE
 70
     0
  0
ENDTAB
  0
TABLE
  2
LTYPE
  5
22
330
0
100
AcDbSymbolTable
 70
     1
  0
LTYPE
  5
23
330
21
100
AcDbSymbolTableRecord
100
AcDbLinetypeTableRecord
  2
BYBLOCK
 70
     0
  3

 72
    65
 73
     0
 40
0.0
  0
LTYPE
  5
24
330
21
100
AcDbSymbolTableRecord
100
AcDbLinetypeTableRecord
  2
BYLAYER
 70
     0
  3

 72
    65
 73
     0
 40
0.0
  0
LTYPE
  5
25
330
21
100
AcDbSymbolTableRecord
100
AcDbLinetypeTableRecord
  2
CONTINUOUS
 70
     0
  3
Solid line
 72
    65
 73
     0
 40
0.0
  0
ENDTAB
  0
TABLE
  2
LAYER
  5
A3A
330
0
100
AcDbSymbolTable
 70
36
  0
LAYER
  5
A3B
330
A3A
100
AcDbSymbolTableRecord
100
AcDbLayerTableRecord
  2
0
 70
   0
 62
   7
  6
CONTINUOUS
  0
LAYER
  5
A3C
330
A3A
100
AcDbSymbolTableRecord
100
AcDbLayerTableRecord
  2
none
 70
    0
 62
    7
  6
CONTINUOUS
  0
LAYER
  5
A3D
330
A3A
100
AcDbSymbolTableRecord
100
AcDbLayerTableRecord
  2
Site
 70
    0
 62
    7
  6
CONTINUOUS
  0
LAYER
  5
A3E
330
A3A
100
AcDbSymbolTableRecord
100
AcDbLayerTableRecord
  2
Line001
 70
    0
 62
    7
  6
CONTINUOUS
  0
LAYER
  5
A3F
330
A3A
100
AcDbSymbolTableRecord
100
AcDbLayerTableRecord
  2
Face
 70
    0
 62
    7
  6
CONTINUOUS
  0
LAYER
  5
A40
330
A3A
100
AcDbSymbolTableRecord
100
AcDbLayerTableRecord
  2
Edge007
 70
    0
 62
    7
  6
CONTINUOUS
  0
LAYER
  5
A41
330
A3A
100
AcDbSymbolTableRecord
100
AcDbLayerTableRecord
  2
Line010
 70
    0
 62
    7
  6
CONTINUOUS
  0
LAYER
  5
A42
330
A3A
100
AcDbSymbolTableRecord
100
AcDbLayerTableRecord
  2
Line011
 70
    0
 62
    7
  6
CONTINUOUS
  0
LAYER
  5
A43
330
A3A
100
AcDbSymbolTableRecord
100
AcDbLayerTableRecord
  2
Circle
 70
    0
 62
    7
  6
CONTINUOUS
  0
LAYER
  5
A44
330
A3A
100
AcDbSymbolTableRecord
100
AcDbLayerTableRecord
  2
Line012
 70
    0
 62
    7
  6
CONTINUOUS
  0
LAYER
  5
A45
330
A3A
100
AcDbSymbolTableRecord
100
AcDbLayerTableRecord
  2
Line003
 70
    0
 62
    7
  6
CONTINUOUS
  0
LAYER
  5
A46
330
A3A
100
AcDbSymbolTableRecord
100
AcDbLayerTableRecord
  2
Line006
 70
    0
 62
    7
  6
CONTINUOUS
  0
LAYER
  5
A47
330
A3A
100
AcDbSymbolTableRecord
100
AcDbLayerTableRecord
  2
Line009
 70
    0
 62
    7
  6
CONTINUOUS
  0
LAYER
  5
A48
330
A3A
100
AcDbSymbolTableRecord
100
AcDbLayerTableRecord
  2
Line008
 70
    0
 62
    7
  6
CONTINUOUS
  0
LAYER
  5
A49
330
A3A
100
AcDbSymbolTableRecord
100
AcDbLayerTableRecord
  2
Fillet
 70
    0
 62
    7
  6
CONTINUOUS
  0
LAYER
  5
A4A
330
A3A
100
AcDbSymbolTableRecord
100
AcDbLayerTableRecord
  2
Line007
 70
    0
 62
    7
  6
CONTINUOUS
  0
LAYER
  5
A4B
330
A3A
100
AcDbSymbolTableRecord
100
AcDbLayerTableRecord
  2
Edge001
 70
    0
 62
    7
  6
CONTINUOUS
  0
LAYER
  5
A4C
330
A3A
100
AcDbSymbolTableRecord
100
AcDbLayerTableRecord
  2
Offset001
 70
    0
 62
    7
  6
CONTINUOUS
  0
LAYER
  5
A4D
330
A3A
100
AcDbSymbolTableRecord
100
AcDbLayerTableRecord
  2
Line004
 70
    0
 62
    7
  6
CONTINUOUS
  0
LAYER
  5
A4E
330
A3A
100
AcDbSymbolTableRecord
100
AcDbLayerTableRecord
  2
Line
 70
    0
 62
    7
  6
CONTINUOUS
  0
LAYER
  5
A4F
330
A3A
100
AcDbSymbolTableRecord
100
AcDbLayerTableRecord
  2
Line013
 70
    0
 62
    7
  6
CONTINUOUS
  0
LAYER
  5
A50
330
A3A
100
AcDbSymbolTableRecord
100
AcDbLayerTableRecord
  2
Wire
 70
    0
 62
    7
  6
CONTINUOUS
  0
LAYER
  5
A51
330
A3A
100
AcDbSymbolTableRecord
100
AcDbLayerTableRecord
  2
Site002
 70
    0
 62
    7
  6
CONTINUOUS
  0
LAYER
  5
A52
330
A3A
100
AcDbSymbolTableRecord
100
AcDbLayerTableRecord
  2
Edge003
 70
    0
 62
    7
  6
CONTINUOUS
  0
LAYER
  5
A53
330
A3A
100
AcDbSymbolTableRecord
100
AcDbLayerTableRecord
  2
Line016
 70
    0
 62
    7
  6
CONTINUOUS
  0
LAYER
  5
A54
330
A3A
100
AcDbSymbolTableRecord
100
AcDbLayerTableRecord
  2
Line015
 70
    0
 62
    7
  6
CONTINUOUS
  0
LAYER
  5
A55
330
A3A
100
AcDbSymbolTableRecord
100
AcDbLayerTableRecord
  2
Line017
 70
    0
 62
    7
  6
CONTINUOUS
  0
LAYER
  5
A56
330
A3A
100
AcDbSymbolTableRecord
100
AcDbLayerTableRecord
  2
Line002
 70
    0
 62
    7
  6
CONTINUOUS
  0
LAYER
  5
A57
330
A3A
100
AcDbSymbolTableRecord
100
AcDbLayerTableRecord
  2
Edge002
 70
    0
 62
    7
  6
CONTINUOUS
  0
LAYER
  5
A58
330
A3A
100
AcDbSymbolTableRecord
100
AcDbLayerTableRecord
  2
Edge005
 70
    0
 62
    7
  6
CONTINUOUS
  0
LAYER
  5
A59
330
A3A
100
AcDbSymbolTableRecord
100
AcDbLayerTableRecord
  2
Edge
 70
    0
 62
    7
  6
CONTINUOUS
  0
LAYER
  5
A5A
330
A3A
100
AcDbSymbolTableRecord
100
AcDbLayerTableRecord
  2
Line014
 70
    0
 62
    7
  6
CONTINUOUS
  0
LAYER
  5
A5B
330
A3A
100
AcDbSymbolTableRecord
100
AcDbLayerTableRecord
  2
Site001
 70
    0
 62
    7
  6
CONTINUOUS
  0
LAYER
  5
A5C
330
A3A
100
AcDbSymbolTableRecord
100
AcDbLayerTableRecord
  2
Edge004
 70
    0
 62
    7
  6
CONTINUOUS
  0
LAYER
  5
A5D
330
A3A
100
AcDbSymbolTableRecord
100
AcDbLayerTableRecord
  2
Rectangle
 70
    0
 62
    7
  6
CONTINUOUS
  0
LAYER
  5
A5E
330
A3A
100
AcDbSymbolTableRecord
100
AcDbLayerTableRecord
  2
Edge006
 70
    0
 62
    7
  6
CONTINUOUS
  0
ENDTAB
  0
TABLE
  2
STYLE
  5
70
330
0
100
AcDbSymbolTable
 70
     2
  0
STYLE
  5
71
330
70
100
AcDbSymbolTableRecord
100
AcDbTextStyleTableRecord
  2
STANDARD
 70
     0
 40
0.0
 41
1.0
 50
0.0
 71
     0
 42
2.5
  3
arial.ttf
  4

  0
STYLE
  5
72
330
70
100
AcDbSymbolTableRecord
100
AcDbTextStyleTableRecord
  2
ANNOTATIVE
 70
     0
 40
0.0
 41
1.0
 50
0.0
 71
     0
 42
2.5
  3
arial.ttf
  4

  0
ENDTAB
  0
TABLE
  2
VIEW
  5
73
330
0
100
AcDbSymbolTable
 70
     0
  0
ENDTAB
  0
TABLE
  2
UCS
  5
74
330
0
100
AcDbSymbolTable
 70
     0
  0
ENDTAB
  0
TABLE
  2
APPID
  5
75
330
0
100
AcDbSymbolTable
 70
     2
  0
APPID
  5
76
330
75
100
AcDbSymbolTableRecord
100
AcDbRegAppTableRecord
  2
ACAD
 70
     0
  0
APPID
  5
77
330
75
100
AcDbSymbolTableRecord
100
AcDbRegAppTableRecord
  2
ACADANNOTATIVE
 70
     0
  0
ENDTAB
  0
TABLE
  2
DIMSTYLE
  5
78
330
0
100
AcDbSymbolTable
 70
     2
  0
DIMSTYLE
105
79
330
78
100
AcDbSymbolTableRecord
100
AcDbDimStyleTableRecord
  2
STANDARD
 70
     0
  3

  4

  5

  6

  7

 40
0.0
 41
2.5
 42
0.625
 43
3.75
 44
1.25
 45
0.0
 46
0.0
 47
0.0
 48
0.0
140
2.5
141
2.5
142
0.0
143
0.03937007874016
144
1.0
145
0.0
146
1.0
147
0.625
 71
     0
 72
     0
 73
     0
 74
     0
 75
     0
 76
     0
 77
     1
 78
     8
170
     0
171
     3
172
     1
173
     0
174
     0
175
     0
176
     0
177
     0
178
     0
270
     2
271
     2
272
     2
273
     2
274
     3
340
71
275
     0
280
     0
281
     0
282
     0
283
     0
284
     8
285
     0
286
     0
287
     3
288
     0
  0
ENDTAB
  0
TABLE
  2
BLOCK_RECORD
  5
A01
330
0
100
AcDbSymbolTable
  70
5
  0
BLOCK_RECORD
  5
A02
330
A01
100
AcDbSymbolTableRecord
100
AcDbBlockTableRecord
  2
*MODEL_SPACE
  0
BLOCK_RECORD
  5
A03
330
A01
100
AcDbSymbolTableRecord
100
AcDbBlockTableRecord
  2
*PAPER_SPACE
  0
ENDTAB
  0
ENDSEC
  0
SECTION
  2
BLOCKS
  0
BLOCK
  5
A04
330
A02
100
AcDbEntity
  8
0
100
AcDbBlockBegin
  2
*MODEL_SPACE
 70
   0
 10
0
 20
0
 30
0
  3
*MODEL_SPACE
  1
 
  0
ENDBLK
  5
A05
330
A02
100
AcDbEntity
  8
0
100
AcDbBlockEnd
  0
BLOCK
  5
A06
330
A03
100
AcDbEntity
 67
1
  8
0
100
AcDbBlockBegin
  2
*PAPER_SPACE
 70
   0
 10
0
 20
0
 30
0
  3
*PAPER_SPACE
  1
 
  0
ENDBLK
  5
A07
330
A03
100
AcDbEntity
 67
    1
  8
0
100
AcDbBlockEnd
  0
ENDSEC
  0
SECTION
  2
ENTITIES
  0
LINE
  5
A08
330
A02
100
AcDbEntity
  8
Line001
100
AcDbLine
 10
12192.000000000
 20
0.000000000
 30
0.000000000
 11
12192.000000000
 21
-1625.600000000
 31
0.000000000
  0
LINE
  5
A09
330
A02
100
AcDbEntity
  8
Face
100
AcDbLine
 10
12192.000000000
 20
7315.200000000
 30
0.000000000
 11
17068.800000000
 21
7315.200000000
 31
0.000000000
  0
LINE
  5
A0A
330
A02
100
AcDbEntity
  8
Face
100
AcDbLine
 10
17068.800000000
 20
7315.200000000
 30
0.000000000
 11
17068.800000000
 21
14630.400000000
 31
0.000000000
  0
LINE
  5
A0B
330
A02
100
AcDbEntity
  8
Face
100
AcDbLine
 10
17068.800000000
 20
14630.400000000
 30
0.000000000
 11
7315.200000000
 21
14630.400000000
 31
0.000000000
  0
LINE
  5
A0C
330
A02
100
AcDbEntity
  8
Face
100
AcDbLine
 10
7315.200000000
 20
14630.400000000
 30
0.000000000
 11
7315.200000000
 21
7315.200000000
 31
0.000000000
  0
LINE
  5
A0D
330
A02
100
AcDbEntity
  8
Face
100
AcDbLine
 10
7315.200000000
 20
7315.200000000
 30
0.000000000
 11
3657.600000000
 21
7315.200000000
 31
0.000000000
  0
LINE
  5
A0E
330
A02
100
AcDbEntity
  8
Face
100
AcDbLine
 10
3657.600000000
 20
7315.200000000
 30
0.000000000
 11
3657.600000000
 21
4876.800000000
 31
0.000000000
  0
LINE
  5
A0F
330
A02
100
AcDbEntity
  8
Face
100
AcDbLine
 10
3657.600000000
 20
4876.800000000
 30
0.000000000
 11
0.000000000
 21
4876.800000000
 31
0.000000000
  0
LINE
  5
A10
330
A02
100
AcDbEntity
  8
Face
100
AcDbLine
 10
0.000000000
 20
4876.800000000
 30
0.000000000
 11
0.000000000
 21
0.000000000
 31
0.000000000
  0
LINE
  5
A11
330
A02
100
AcDbEntity
  8
Face
100
AcDbLine
 10
0.000000000
 20
0.000000000
 30
0.000000000
 11
12192.000000000
 21
0.000000000
 31
0.000000000
  0
LINE
  5
A12
330
A02
100
AcDbEntity
  8
Face
100
AcDbLine
 10
12192.000000000
 20
0.000000000
 30
0.000000000
 11
12192.000000000
 21
7315.200000000
 31
0.000000000
  0
LINE
  5
A13
330
A02
100
AcDbEntity
  8
Edge007
100
AcDbLine
 10
-2775.166716435
 20
7010.400000000
 30
0.000000000
 11
3657.600000000
 21
7010.400000000
 31
0.000000000
  0
LINE
  5
A14
330
A02
100
AcDbEntity
  8
Line010
100
AcDbLine
 10
-6681.759312581
 20
29629.707933261
 30
0.000000000
 11
-11300.233398438
 21
-25042.988286329
 31
0.000000000
  0
LINE
  5
A15
330
A02
100
AcDbEntity
  8
Line011
100
AcDbLine
 10
17271.085950617
 20
-3212.865789750
 30
0.000000000
 11
-9998.438548515
 21
-9632.566348920
 31
0.000000000
  0
CIRCLE
  5
A16
330
A02
100
AcDbEntity
  8
Circle
100
AcDbCircle
 10
58161.806640625
 20
-14548.555669140
 30
0.000000000
 40
3044.329389558
  0
LINE
  5
A17
330
A02
100
AcDbEntity
  8
Line012
100
AcDbLine
 10
17131.389380995
 20
-4829.356686282
 30
0.000000000
 11
51552.968445155
 21
3274.056718405
 31
0.000000000
  0
LINE
  5
A18
330
A02
100
AcDbEntity
  8
Line003
100
AcDbLine
 10
0.000000000
 20
4876.800000000
 30
0.000000000
 11
-4419.600000000
 21
4876.800000000
 31
0.000000000
  0
LINE
  5
A19
330
A02
100
AcDbEntity
  8
Line006
100
AcDbLine
 10
-3287.712500000
 20
14325.600000000
 30
0.000000000
 11
7315.200000000
 21
14325.600000000
 31
0.000000000
  0
LINE
  5
A1A
330
A02
100
AcDbEntity
  8
Line009
100
AcDbLine
 10
17131.389380995
 20
-4829.356686282
 30
0.000000000
 11
20214.792968750
 21
30850.072260551
 31
0.000000000
  0
LINE
  5
A1B
330
A02
100
AcDbEntity
  8
Line008
100
AcDbLine
 10
-4127.500000000
 20
7315.200000000
 30
0.000000000
 11
-5703.194917431
 21
-5838.427136812
 31
0.000000000
  0
LINE
  5
A1C
330
A02
100
AcDbEntity
  8
Fillet
100
AcDbLine
 10
-2871.639160680
 20
18284.968453466
 30
0.000000000
 11
-3110.824361100
 21
16008.873718283
 31
0.000000000
  0
ARC
  5
A1D
330
A02
100
AcDbEntity
  8
Fillet
100
AcDbCircle
 10
-1595.170085658
 20
15849.600000000
 30
0.000000000
 40
1524.000000000
100
AcDbArc
 50
174.001045613
 51
-90.000000000
  0
LINE
  5
A1E
330
A02
100
AcDbEntity
  8
Fillet
100
AcDbLine
 10
-1595.170085658
 20
14325.600000000
 30
0.000000000
 11
7315.200000000
 21
14325.600000000
 31
0.000000000
  0
LINE
  5
A1F
330
A02
100
AcDbEntity
  8
Line007
100
AcDbLine
 10
-4127.500000000
 20
7315.200000000
 30
0.000000000
 11
3657.600000000
 21
7315.200000000
 31
0.000000000
  0
LINE
  5
A20
330
A02
100
AcDbEntity
  8
Edge001
100
AcDbLine
 10
-5703.194917431
 20
-5838.427136812
 30
0.000000000
 11
-4288.348278902
 21
5972.466541337
 31
0.000000000
  0
LINE
  5
A21
330
A02
100
AcDbEntity
  8
Offset001
100
AcDbLine
 10
-2568.508305592
 20
18253.113709809
 30
0.000000000
 11
-2807.693506011
 21
15977.018974627
 31
0.000000000
  0
ARC
  5
A22
330
A02
100
AcDbEntity
  8
Offset001
100
AcDbCircle
 10
-1595.170085658
 20
15849.600000000
 30
0.000000000
 40
1219.200000000
100
AcDbArc
 50
174.001045613
 51
-90.000000000
  0
LINE
  5
A23
330
A02
100
AcDbEntity
  8
Offset001
100
AcDbLine
 10
-1595.170085658
 20
14630.400000000
 30
0.000000000
 11
7315.200000000
 21
14630.400000000
 31
0.000000000
  0
LINE
  5
A24
330
A02
100
AcDbEntity
  8
Line004
100
AcDbLine
 10
-2871.639160680
 20
18284.968453466
 30
0.000000000
 11
-3287.712500000
 21
14325.600000000
 31
0.000000000
  0
LINE
  5
A25
330
A02
100
AcDbEntity
  8
Line
100
AcDbLine
 10
0.000000000
 20
0.000000000
 30
0.000000000
 11
0.000000000
 21
-4495.800000000
 31
0.000000000
  0
LINE
  5
A26
330
A02
100
AcDbEntity
  8
Line013
100
AcDbLine
 10
18572.068246513
 20
11998.417178360
 30
0.000000000
 11
-8067.640416238
 21
13223.887489505
 31
0.000000000
  0
LINE
  5
A27
330
A02
100
AcDbEntity
  8
Wire
100
AcDbLine
 10
24057.802734375
 20
6807.087885549
 30
0.000000000
 11
22742.232421875
 21
2384.537592580
 31
0.000000000
  0
LINE
  5
A28
330
A02
100
AcDbEntity
  8
Wire
100
AcDbLine
 10
22742.232421875
 20
2384.537592580
 30
0.000000000
 11
26129.121093750
 21
1376.867548635
 31
0.000000000
  0
LINE
  5
A29
330
A02
100
AcDbEntity
  8
Wire
100
AcDbLine
 10
26129.121093750
 20
1376.867548635
 30
0.000000000
 11
27528.664062500
 21
5855.399408987
 31
0.000000000
  0
LINE
  5
A2A
330
A02
100
AcDbEntity
  8
Wire
100
AcDbLine
 10
27528.664062500
 20
5855.399408987
 30
0.000000000
 11
24079.879932325
 21
6881.304761175
 31
0.000000000
  0
LINE
  5
A2B
330
A02
100
AcDbEntity
  8
Wire
100
AcDbLine
 10
24079.879932325
 20
6881.304761175
 30
0.000000000
 11
24057.802734375
 21
6807.087885549
 31
0.000000000
  0
LINE
  5
A2C
330
A02
100
AcDbEntity
  8
Edge003
100
AcDbLine
 10
-2775.166716435
 20
7315.200000000
 30
0.000000000
 11
3657.600000000
 21
7315.200000000
 31
0.000000000
  0
LINE
  5
A2D
330
A02
100
AcDbEntity
  8
Line015
100
AcDbLine
 10
55197.000000000
 20
-15239.832036328
 30
0.000000000
 11
61126.613281250
 21
-13857.279301952
 31
0.000000000
  0
LINE
  5
A2E
330
A02
100
AcDbEntity
  8
Line017
100
AcDbLine
 10
58161.806640625
 20
-14548.555669140
 30
0.000000000
 11
57284.218750000
 21
-9825.432617189
 31
0.000000000
  0
LINE
  5
A2F
330
A02
100
AcDbEntity
  8
Line002
100
AcDbLine
 10
0.000000000
 20
0.000000000
 30
0.000000000
 11
-5003.800000000
 21
0.000000000
 31
0.000000000
  0
ARC
  5
A30
330
A02
100
AcDbEntity
  8
Edge002
100
AcDbCircle
 10
-2775.166716435
 20
5791.200000000
 30
0.000000000
 40
1524.000000000
100
AcDbArc
 50
90.000000000
 51
173.168994051
  0
LINE
  5
A31
330
A02
100
AcDbEntity
  8
Edge005
100
AcDbLine
 10
-5348.708261742
 20
-5441.842797541
 30
0.000000000
 11
-3985.711966409
 21
5936.213233070
 31
0.000000000
  0
LINE
  5
A32
330
A02
100
AcDbEntity
  8
Edge
100
AcDbLine
 10
17516.583551394
 20
-372.104288943
 30
0.000000000
 11
-5703.194917431
 21
-5838.427136812
 31
0.000000000
  0
LINE
  5
A33
330
A02
100
AcDbEntity
  8
Line014
100
AcDbLine
 10
16700.378906250
 20
30616.218744926
 30
0.000000000
 11
13421.051409450
 21
-8203.892119425
 31
0.000000000
  0
LINE
  5
A34
330
A02
100
AcDbEntity
  8
Edge004
100
AcDbLine
 10
17446.737911302
 20
-75.414844304
 30
0.000000000
 11
-5348.708261742
 21
-5441.842797541
 31
0.000000000
  0
LINE
  5
A35
330
A02
100
AcDbEntity
  8
Rectangle
100
AcDbLine
 10
304.800000000
 20
4876.800000000
 30
0.000000000
 11
3657.600000000
 21
4876.800000000
 31
0.000000000
  0
LINE
  5
A36
330
A02
100
AcDbEntity
  8
Rectangle
100
AcDbLine
 10
3657.600000000
 20
4876.800000000
 30
0.000000000
 11
3657.600000000
 21
7010.400000000
 31
0.000000000
  0
LINE
  5
A37
330
A02
100
AcDbEntity
  8
Rectangle
100
AcDbLine
 10
3657.600000000
 20
7010.400000000
 30
0.000000000
 11
304.800000000
 21
7010.400000000
 31
0.000000000
  0
LINE
  5
A38
330
A02
100
AcDbEntity
  8
Rectangle
100
AcDbLine
 10
304.800000000
 20
7010.400000000
 30
0.000000000
 11
304.800000000
 21
4876.800000000
 31
0.000000000
  0
ARC
  5
A39
330
A02
100
AcDbEntity
  8
Edge006
100
AcDbCircle
 10
-2775.166716435
 20
5791.200000000
 30
0.000000000
 40
1219.200000000
100
AcDbArc
 50
90.000000000
 51
173.168994051
  0
ENDSEC
  0
SECTION
  2
OBJECTS
  0
DICTIONARY
  5
F000
330
0
100
AcDbDictionary
  3
ACAD_GROUP
350
F001
  0
DICTIONARY
  5
F001
330
F000
100
AcDbDictionary
  0
ENDSEC
  0
EOF