<?xml version="1.0" encoding="UTF-8" standalone="no"?>
<!-- Created with Inkscape (http://www.inkscape.org/) -->

<svg
   version="1.1"
   id="svg840"
   xml:space="preserve"
   width="1122.6667"
   height="793.33331"
   viewBox="0 0 1122.6667 793.33331"
   sodipodi:docname="site-20.svg"
   inkscape:version="1.1.2 (0a00cf5339, 2022-02-04)"
   xmlns:inkscape="http://www.inkscape.org/namespaces/inkscape"
   xmlns:sodipodi="http://sodipodi.sourceforge.net/DTD/sodipodi-0.dtd"
   xmlns="http://www.w3.org/2000/svg"
   xmlns:svg="http://www.w3.org/2000/svg"><defs
     id="defs844"><clipPath
       clipPathUnits="userSpaceOnUse"
       id="clipPath864"><path
         d="M 0,0 H 14031 V 9921 H 0 Z"
         clip-rule="evenodd"
         id="path862" /></clipPath><clipPath
       clipPathUnits="userSpaceOnUse"
       id="clipPath878"><path
         d="M 0,0 H 14031 V 9921 H 0 Z"
         clip-rule="evenodd"
         id="path876" /></clipPath><clipPath
       clipPathUnits="userSpaceOnUse"
       id="clipPath884"><path
         d="M 0,0 H 14031 V 9920.9091 H 0 Z"
         clip-rule="evenodd"
         id="path882" /></clipPath><clipPath
       clipPathUnits="userSpaceOnUse"
       id="clipPath898"><path
         d="M 0,0 H 14031 V 9921 H 0 Z"
         clip-rule="evenodd"
         id="path896" /></clipPath></defs><sodipodi:namedview
     id="namedview842"
     pagecolor="#ffffff"
     bordercolor="#666666"
     borderopacity="1.0"
     inkscape:pageshadow="2"
     inkscape:pageopacity="0.0"
     inkscape:pagecheckerboard="0"
     showgrid="false"
     inkscape:zoom="0.5"
     inkscape:cx="503"
     inkscape:cy="314"
     inkscape:window-width="1920"
     inkscape:window-height="1011"
     inkscape:window-x="0"
     inkscape:window-y="800"
     inkscape:window-maximized="1"
     inkscape:current-layer="g846" /><g
     id="g846"
     inkscape:groupmode="layer"
     inkscape:label="site-20"
     transform="matrix(1.3333333,0,0,-1.3333333,0,793.33333)"><g
       id="g852"
       transform="matrix(0.12,0,0,-0.12,-420.92999,892.62727)" /><g
       id="g856"
       transform="matrix(0.12,0,0,-0.12,-420.92999,892.62727)" /><g
       id="g860"
       clip-path="url(#clipPath864)"
       transform="matrix(0.12,0,0,-0.12,-420.92999,892.62727)"><g
         id="g866" /><g
         id="g868" /><g
         id="g870" /></g><g
       id="g874"
       clip-path="url(#clipPath878)"
       transform="matrix(0.12,0,0,-0.12,-420.92999,892.62727)"><g
         id="g880"
         clip-path="url(#clipPath884)"><g
           id="g886" /></g></g><g
       id="g890"
       transform="matrix(0.12,0,0,-0.12,-420.92999,892.62727)" /><g
       id="g900"
       transform="matrix(0.12,0,0,-0.12,-420.92999,892.62727)" /><g
       id="g902"
       transform="matrix(0.12,0,0,-0.12,-420.92999,892.62727)" /><g
       id="g904"
       transform="matrix(0.12,0,0,-0.12,-420.92999,892.62727)" /><g
       id="g906"
       transform="matrix(0.12,0,0,-0.12,-420.92999,892.62727)" /><g
       id="g908"
       transform="matrix(0.12,0,0,-0.12,-420.92999,892.62727)" /><g
       id="g910"
       transform="matrix(0.12,0,0,-0.12,-420.92999,892.62727)" /><g
       id="g912"
       transform="matrix(0.12,0,0,-0.12,-420.92999,892.62727)" /><g
       id="g914"
       transform="matrix(0.12,0,0,-0.12,-420.92999,892.62727)" /><g
       id="g916"
       transform="matrix(0.12,0,0,-0.12,-420.92999,892.62727)"><path
         d="m 6979.5928,4151.8612 h 944.6151 V 2734.9485 H 6034.9777 v 1416.9127 h -708.4614 v 472.3042 H 4618.055 v 944.6085 h 2361.5378 z"
         style="fill:#abab80;fill-opacity:1;fill-rule:evenodd;stroke:none"
         id="path918" /></g><g
       id="g920"
       transform="matrix(0.02324348,0,0,0.02324332,133.23661,224.37441)"><path
         d="m 12192,7315.2 h 4876.8 v 7315.2 H 7315.2 V 7315.2 H 3657.6 V 4876.8 H 0 V 0 h 12192 z"
         style="fill:none;stroke:#191919;stroke-width:43.75;stroke-linecap:square;stroke-linejoin:miter;stroke-miterlimit:4;stroke-dasharray:none;stroke-opacity:1"
         id="path922" /></g><g
       id="g924"
       transform="matrix(0.12,0,0,-0.12,-420.92999,892.62727)"><path
         d="m 4677.0934,4624.1654 h 649.4229 v -413.2662 h -649.4229 z"
         style="fill:#adb5bd;fill-opacity:1;fill-rule:evenodd;stroke:none"
         id="path926" /></g><g
       id="g928"
       transform="matrix(0.02324348,0,0,0.02324332,133.23661,224.37441)"><path
         d="M 304.8,4876.8 H 3657.6 V 7010.4 H 304.8 Z"
         style="fill:none;stroke:#191919;stroke-width:43.75;stroke-linecap:square;stroke-linejoin:miter;stroke-miterlimit:4;stroke-dasharray:none;stroke-opacity:1"
         id="path930" /></g><g
       id="g932"
       transform="matrix(0.12,0,0,-0.12,-420.92999,892.62727)" /><g
       id="g934"
       transform="matrix(0.02324348,0,0,0.02324332,133.23661,224.37441)"><path
         d="M 17516.583,-372.10429 -5703.1949,-5838.4271"
         style="fill:none;stroke:#191919;stroke-width:43.75;stroke-linecap:square;stroke-linejoin:miter;stroke-miterlimit:4;stroke-dasharray:none;stroke-opacity:1"
         id="path936" /></g><g
       id="g938"
       transform="matrix(0.12,0,0,-0.12,-420.92999,892.62727)" /><g
       id="g940"
       transform="matrix(0.02324348,0,0,0.02324332,133.23661,224.37441)"><path
         d="M -5703.1949,-5838.4271 -4288.3483,5972.4665"
         style="fill:none;stroke:#191919;stroke-width:43.75;stroke-linecap:square;stroke-linejoin:miter;stroke-miterlimit:4;stroke-dasharray:none;stroke-opacity:1"
         id="path942" /></g><g
       id="g944"
       transform="matrix(0.12,0,0,-0.12,-420.92999,892.62727)" /><g
       id="g946"
       transform="matrix(0.02324348,0,0,0.02324332,133.23661,224.37441)"><path
         d="m -4288.3483,5972.4665 c 91.7714,766.0915 741.6097,1342.7318 1513.1783,1342.7335"
         style="fill:none;stroke:#191919;stroke-width:43.75;stroke-linecap:square;stroke-linejoin:miter;stroke-miterlimit:4;stroke-dasharray:none;stroke-opacity:1"
         id="path948" /></g><g
       id="g950"
       transform="matrix(0.12,0,0,-0.12,-420.92999,892.62727)" /><g
       id="g952"
       transform="matrix(0.02324348,0,0,0.02324332,133.23661,224.37441)"><path
         d="M -2775.1667,7315.2 H 3657.6"
         style="fill:none;stroke:#191919;stroke-width:43.75;stroke-linecap:square;stroke-linejoin:miter;stroke-miterlimit:4;stroke-dasharray:none;stroke-opacity:1"
         id="path954" /></g><g
       id="g956"
       transform="matrix(0.12,0,0,-0.12,-420.92999,892.62727)" /><g
       id="g958"
       transform="matrix(0.02324348,0,0,0.02324332,133.23661,224.37441)"><path
         d="M 17446.738,-75.414844 -5348.7083,-5441.8428"
         style="fill:none;stroke:#191919;stroke-width:43.75;stroke-linecap:square;stroke-linejoin:miter;stroke-miterlimit:4;stroke-dasharray:none;stroke-opacity:1"
         id="path960" /></g><g
       id="g962"
       transform="matrix(0.12,0,0,-0.12,-420.92999,892.62727)" /><g
       id="g964"
       transform="matrix(0.02324348,0,0,0.02324332,133.23661,224.37441)"><path
         d="M -5348.7083,-5441.8428 -3985.712,5936.2132"
         style="fill:none;stroke:#191919;stroke-width:43.75;stroke-linecap:square;stroke-linejoin:miter;stroke-miterlimit:4;stroke-dasharray:none;stroke-opacity:1"
         id="path966" /></g><g
       id="g968"
       transform="matrix(0.12,0,0,-0.12,-420.92999,892.62727)" /><g
       id="g970"
       transform="matrix(0.02324348,0,0,0.02324332,133.23661,224.37441)"><path
         d="m -3985.712,5936.2132 c 73.4171,612.8729 593.2874,1074.1851 1210.542,1074.1868"
         style="fill:none;stroke:#191919;stroke-width:43.75;stroke-linecap:square;stroke-linejoin:miter;stroke-miterlimit:4;stroke-dasharray:none;stroke-opacity:1"
         id="path972" /></g><g
       id="g974"
       transform="matrix(0.12,0,0,-0.12,-420.92999,892.62727)" /><g
       id="g976"
       transform="matrix(0.02324348,0,0,0.02324332,133.23661,224.37441)"><path
         d="M -2775.1667,7010.4 H 3657.6"
         style="fill:none;stroke:#191919;stroke-width:43.75;stroke-linecap:square;stroke-linejoin:miter;stroke-miterlimit:4;stroke-dasharray:none;stroke-opacity:1"
         id="path978" /></g><g
       id="g980"
       transform="matrix(0.12,0,0,-0.12,-420.92999,892.62727)" /><g
       id="g982"
       transform="matrix(0.02324348,0,0,0.02324332,133.23661,224.37441)"><path
         d="m -2871.6392,18284.968 -239.1852,-2276.094 c -45.139,-429.545 94.1037,-858.07 383.1109,-1179.039 289.0073,-320.97 700.6334,-504.235 1132.5435,-504.235 H 7315.2"
         style="fill:none;stroke:#191919;stroke-width:43.75;stroke-linecap:square;stroke-linejoin:miter;stroke-miterlimit:4;stroke-dasharray:none;stroke-opacity:1"
         id="path984" /></g><g
       id="g986"
       transform="matrix(0.12,0,0,-0.12,-420.92999,892.62727)" /><g
       id="g988"
       transform="matrix(0.02324348,0,0,0.02324332,133.23661,224.37441)"><path
         d="m -2568.5083,18253.114 -239.1852,-2276.095 c -36.1113,-343.636 75.2829,-686.456 306.4887,-943.231 231.2058,-256.776 560.5067,-403.388 906.0348,-403.388 H 7315.2"
         style="fill:none;stroke:#191919;stroke-width:43.75;stroke-linecap:square;stroke-linejoin:miter;stroke-miterlimit:4;stroke-dasharray:none;stroke-opacity:1"
         id="path990" /></g><g
       id="g992"
       transform="matrix(0.12,0,0,-0.12,-420.92999,892.62727)" /><g
       id="g994"
       transform="matrix(0.02324348,0,0,0.02324332,133.23661,224.37441)"><path
         d="M 19396.471,21380.902 17131.389,-4829.3567"
         style="fill:none;stroke:#aa007f;stroke-width:43.75;stroke-linecap:square;stroke-linejoin:miter;stroke-miterlimit:4;stroke-dasharray:375, 250, 25, 250;stroke-dashoffset:0;stroke-opacity:1"
         id="path996" /></g><g
       id="g998"
       transform="matrix(0.12,0,0,-0.12,-420.92999,892.62727)" /><g
       id="g1000"
       transform="matrix(0.02324348,0,0,0.02324332,133.23661,224.37441)"><path
         d="m -10460.275,-15099.71 3081.6981,36480.612"
         style="fill:none;stroke:#aa007f;stroke-width:43.75;stroke-linecap:square;stroke-linejoin:miter;stroke-miterlimit:4;stroke-dasharray:375, 250, 25, 250;stroke-dashoffset:0;stroke-opacity:1"
         id="path1002" /></g><g
       id="g1004"
       transform="matrix(0.12,0,0,-0.12,-420.92999,892.62727)" /><g
       id="g1006"
       transform="matrix(0.02324348,0,0,0.02324332,133.23661,224.37441)"><path
         d="M 17271.086,-3212.8658 -9998.4385,-9632.5663"
         style="fill:none;stroke:#aa007f;stroke-width:43.75;stroke-linecap:square;stroke-linejoin:miter;stroke-miterlimit:4;stroke-dasharray:375, 250, 25, 250;stroke-dashoffset:0;stroke-opacity:1"
         id="path1008" /></g><g
       id="g1010"
       transform="matrix(0.12,0,0,-0.12,-420.92999,892.62727)" /><g
       id="g1012"
       transform="matrix(0.02324348,0,0,0.02324332,133.23661,224.37441)"><path
         d="M 35212.367,-572.79315 17131.389,-4829.3567"
         style="fill:none;stroke:#aa007f;stroke-width:43.75;stroke-linecap:square;stroke-linejoin:miter;stroke-miterlimit:4;stroke-dasharray:375, 250, 25, 250;stroke-dashoffset:0;stroke-opacity:1"
         id="path1014" /></g><g
       id="g1016"
       transform="matrix(0.12,0,0,-0.12,-420.92999,892.62727)" /><g
       id="g1018"
       transform="matrix(0.02324348,0,0,0.02324332,133.23661,224.37441)"><path
         d="m 18572.068,11998.417 -26639.7084,1225.47"
         style="fill:none;stroke:#aa007f;stroke-width:43.75;stroke-linecap:square;stroke-linejoin:miter;stroke-miterlimit:4;stroke-dasharray:375, 250, 25, 250;stroke-dashoffset:0;stroke-opacity:1"
         id="path1020" /></g><g
       id="g1022"
       transform="matrix(0.12,0,0,-0.12,-420.92999,892.62727)" /><g
       id="g1024"
       transform="matrix(0.02324348,0,0,0.02324332,133.23661,224.37441)"><path
         d="m 13647.058,-5528.463 2273.168,26909.365"
         style="fill:none;stroke:#ffaa00;stroke-width:43.75;stroke-linecap:square;stroke-linejoin:miter;stroke-miterlimit:4;stroke-dasharray:375, 250, 25, 250;stroke-dashoffset:0;stroke-opacity:1"
         id="path1026" /></g><g
       id="g1028"
       transform="matrix(0.12,0,0,-0.12,-420.92999,892.62727)"><path
         d="m 9277.9476,4250.2796 -254.8203,856.6229 656.0258,195.1799 271.0854,-867.4661 -668.0146,-198.7121 z"
         style="fill:#adb5bd;fill-opacity:1;fill-rule:evenodd;stroke:none"
         id="path1030" /></g><g
       id="g1032"
       transform="matrix(0.02324348,0,0,0.02324332,133.23661,224.37441)"><path
         d="M 24057.803,6807.0879 22742.232,2384.5376 26129.121,1376.8675 27528.664,5855.3994 24079.88,6881.3048 Z"
         style="fill:none;stroke:#191919;stroke-width:43.75;stroke-linecap:square;stroke-linejoin:miter;stroke-miterlimit:4;stroke-dasharray:none;stroke-opacity:1"
         id="path1034" /></g><g
       id="g1036"
       transform="matrix(0.12,0,0,-0.12,-420.92999,892.62727)" /><g
       id="g1038"
       transform="matrix(0.02324348,0,0,0.02324332,133.23661,224.37441)"><path
         d="m 21555.566,-10697.91 5929.614,1382.5526"
         style="fill:none;stroke:#191919;stroke-width:43.75;stroke-linecap:square;stroke-linejoin:miter;stroke-miterlimit:4;stroke-dasharray:none;stroke-opacity:1"
         id="path1040" /></g><g
       id="g1042"
       transform="matrix(0.12,0,0,-0.12,-420.92999,892.62727)" /><g
       id="g1044"
       transform="matrix(0.02324348,0,0,0.02324332,133.23661,224.37441)"><path
         d="m 24520.373,-10006.634 -877.588,4723.1233"
         style="fill:none;stroke:#191919;stroke-width:43.75;stroke-linecap:square;stroke-linejoin:miter;stroke-miterlimit:4;stroke-dasharray:none;stroke-opacity:1"
         id="path1046" /></g><g
       id="g1048"
       transform="matrix(0.12,0,0,-0.12,-420.92999,892.62727)"
       style="fill:none"><path
         d="m 9957.219,7507.002 c 0,-325.6654 -264.0058,-589.6693 -589.6735,-589.6693 -325.6677,0 -589.6735,264.0039 -589.6735,589.6693 0,325.6653 264.0058,589.6693 589.6735,589.6693 325.6677,0 589.6735,-264.004 589.6735,-589.6693 z"
         style="fill:none;fill-opacity:1;fill-rule:evenodd;stroke:none"
         id="path1050" /></g><g
       id="g1052"
       transform="matrix(0.02324348,0,0,0.02324332,133.23661,224.37441)"><path
         d="m 27564.702,-10006.634 c 0,1681.3369 -1362.992,3044.3296 -3044.329,3044.3296 -1681.337,0 -3044.329,-1362.9927 -3044.329,-3044.3296 0,-1681.336 1362.992,-3044.329 3044.329,-3044.329 1681.337,0 3044.329,1362.993 3044.329,3044.329 z"
         style="fill:none;stroke:#191919;stroke-width:43.75;stroke-linecap:square;stroke-linejoin:miter;stroke-miterlimit:4;stroke-dasharray:none;stroke-opacity:1"
         id="path1054" /></g><g
       id="g1056"
       transform="matrix(0.02324328,0,0,-0.02324328,-110.44607,721.88787)" /><g
       id="g1060"
       transform="matrix(0.12,0,0,-0.12,-420.92999,892.62727)" /></g></svg>
